<svg xmlns="http://www.w3.org/2000/svg" width="78" height="18" viewBox="0 0 78 18" fill="none">
<path fill-rule="evenodd" clip-rule="evenodd" d="M8.92505 5.31212H9.40521H10.6004H18.9806V2.97407C18.9806 1.42772 17.7912 0.172852 16.3231 0.172852H6.26752V2.50967C6.26752 4.05725 7.45696 5.31212 8.92505 5.31212ZM2.65639 17.8265H3.13654H4.33174H12.712V15.4897C12.712 13.9421 11.5225 12.6885 10.0556 12.6885H0V15.0253C0 16.5716 1.18944 17.8265 2.65639 17.8265ZM9.42919 11.5767C9.33592 11.5767 9.24726 11.5829 9.1609 11.5928H0V9.21148C0 7.66513 1.18944 6.41026 2.65639 6.41026H10.1258C10.1323 6.41026 10.1379 6.40994 10.1433 6.40963C10.1485 6.40932 10.1536 6.40903 10.1592 6.40903H18.9781V8.77549C18.9781 10.3218 17.7887 11.5767 16.3217 11.5767H9.42919Z" fill="#177EFF"/>
<path d="M33.4926 5.69025L28.8652 11.9852H33.6914V13.9552H25.9448V12.5646L30.5926 6.26965H26.1437V4.29968H33.4926V5.69025Z" fill="#177EFF"/>
<path d="M50.8201 0.188869V2.19747C49.2569 2.06913 48.4759 2.70585 48.4759 4.10888V4.30201H50.8201V6.31061H48.4759V13.9575H46.3305V6.30937H44.8212V4.30077H46.3305V4.10763C46.3305 2.7694 46.7138 1.75887 47.4828 1.07604C48.2507 0.394464 49.3623 0.0979085 50.8201 0.188869Z" fill="#177EFF"/>
<path d="M57.0216 4.2981V6.3067H54.5587V10.9407C54.5587 11.3394 54.651 11.626 54.8366 11.8004C55.0223 11.9736 55.2966 12.0708 55.6608 12.0895C56.0249 12.1082 56.4777 12.1057 57.0216 12.0796V13.9523C55.3793 14.1455 54.2018 14.0072 53.4866 13.5374C52.7715 13.0677 52.4146 12.2017 52.4146 10.9407V6.3067V4.2981V2.21349L54.5587 1.59546V4.29934H57.0216V4.2981Z" fill="#177EFF"/>
<path d="M61.1107 4.29968H58.9653V13.9552H61.1107V4.29968Z" fill="#177EFF"/>
<path d="M68.799 0.188869V2.19747C67.2358 2.06913 66.4548 2.70585 66.4548 4.10888V4.30201H68.799V6.31061H66.4548V13.9575H64.3094V6.30937H62.8V4.30077H64.3094V4.10763C64.3094 2.7694 64.6927 1.75887 65.4617 1.07604C66.2296 0.394464 67.3412 0.0979085 68.799 0.188869Z" fill="#177EFF"/>
<path d="M73.1745 11.3086L75.7164 4.29968H78.0007L74.1879 14.2642C73.2344 16.7612 71.6185 17.9462 69.3413 17.8166V15.8666C70.0038 15.9052 70.5404 15.7706 70.9501 15.4616C71.3598 15.1526 71.7047 14.6567 71.9826 13.9751L72.0821 13.782L67.8704 4.30093H70.2146L73.1745 11.3086Z" fill="#177EFF"/>
<path d="M61.1107 3.20903C61.1107 3.20903 61.506 3.20903 60.598 3.20903C59.69 3.20903 58.9653 2.5424 58.9653 1.52066C58.9653 0.498916 58.9653 0.977392 58.9653 0.977392H61.1107V3.20903Z" fill="#177EFF"/>
<path d="M39.2456 4.05054C36.5491 4.05054 34.363 6.32454 34.363 9.12935C34.363 11.9342 36.5491 14.2082 39.2456 14.2082C41.942 14.2082 44.1281 11.9342 44.1281 9.12935C44.1281 6.32454 41.942 4.05054 39.2456 4.05054ZM39.2456 12.0264C37.7075 12.0264 36.4605 10.7293 36.4605 9.12935C36.4605 7.52945 37.7075 6.23233 39.2456 6.23233C40.7836 6.23233 42.0306 7.52945 42.0306 9.12935C42.0306 10.7293 40.7836 12.0264 39.2456 12.0264Z" fill="#177EFF"/>
</svg>